<svg xmlns="http://www.w3.org/2000/svg" xmlns:xlink="http://www.w3.org/1999/xlink" version="1.1" id="Шар_1" x="0px" y="0px" viewBox="0 0 1920 1080" style="enable-background:new 0 0 1920 1080;" xml:space="preserve">
<style type="text/css">
	.st0{clip-path:url(#SVGID_2_);fill:#FFFFFF;}
	.st1{clip-path:url(#SVGID_2_);fill:#F7DD1C;}
	.st2{clip-path:url(#SVGID_2_);fill:#F4F41E;}
</style>
<g>
	<defs>
		<rect id="SVGID_1_" width="1920" height="1080"/>
	</defs>
	<clipPath id="SVGID_2_">
		<use xlink:href="#SVGID_1_" style="overflow:visible;"/>
	</clipPath>
	<path class="st0" d="M984.3,725c0-2.4,0.8-4.3,2.4-6c1.6-1.6,3.6-2.4,5.9-2.4c2.4,0,4.3,0.8,6,2.4c1.6,1.6,2.4,3.6,2.4,6   s-0.8,4.3-2.4,5.9c-1.6,1.6-3.6,2.4-6,2.4c-2.3,0-4.2-0.8-5.9-2.4C985.1,729.3,984.3,727.4,984.3,725 M986.2,743.9h12.7v53.8h-12.7   V743.9z"/>
	<path class="st0" d="M1023.9,797.7h-12.8v-53.8h12.5v7.2c1.8-3.1,4.1-5.3,7-6.7c2.9-1.4,5.9-2,8.9-2c3.3,0,6.2,0.6,8.6,1.7   c2.4,1.1,4.4,2.6,6,4.6c1.6,2,2.8,4.2,3.6,6.8c0.8,2.6,1.2,5.3,1.2,8.3v34h-12.8v-31.8c0-3.3-0.8-6.1-2.5-8.5   c-1.7-2.3-4.5-3.5-8.6-3.5c-3.7,0-6.5,1.2-8.3,3.7c-1.9,2.5-2.8,5.5-2.8,9V797.7z"/>
	<polygon class="st0" points="1097.6,797.7 1084.8,797.7 1062.9,743.9 1077.1,743.9 1091.3,782.4 1105.2,743.9 1118.7,743.9  "/>
	<path class="st0" d="M1169.7,782.4c-0.7,2.4-1.8,4.6-3.2,6.6c-1.4,2.1-3.1,3.9-5.2,5.4c-2.1,1.5-4.4,2.8-7.1,3.6   c-2.7,0.9-5.6,1.3-8.8,1.3c-3.7,0-7.2-0.6-10.5-1.9c-3.3-1.3-6.2-3.2-8.7-5.6c-2.5-2.5-4.5-5.5-6-9.1c-1.5-3.6-2.3-7.6-2.3-12.2   c0-4.3,0.7-8.1,2.2-11.6c1.4-3.5,3.4-6.4,5.8-8.9c2.4-2.5,5.2-4.4,8.4-5.7c3.2-1.4,6.4-2,9.8-2c4.1,0,7.8,0.7,11.1,2   c3.3,1.3,6,3.2,8.3,5.6c2.2,2.4,4,5.4,5.1,8.8c1.2,3.4,1.8,7.3,1.8,11.5c0,1,0,1.9-0.1,2.7c-0.1,0.8-0.2,1.2-0.2,1.4h-39.3   c0.1,2.1,0.5,3.9,1.3,5.6c0.8,1.7,1.9,3.2,3.2,4.4c1.3,1.3,2.9,2.2,4.6,2.9c1.7,0.7,3.6,1,5.6,1c3.9,0,6.9-0.9,9-2.7   c2.1-1.8,3.6-4,4.5-6.7L1169.7,782.4z M1157.4,764.9c-0.1-1.5-0.4-3-0.9-4.5c-0.6-1.4-1.4-2.7-2.5-3.8c-1.1-1.1-2.5-2-4.1-2.7   c-1.6-0.7-3.5-1-5.7-1c-2,0-3.8,0.4-5.4,1.1c-1.6,0.7-2.9,1.6-4,2.8c-1.1,1.1-2,2.4-2.7,3.9c-0.7,1.4-1,2.9-1.1,4.3H1157.4z"/>
	<path class="st0" d="M1184.6,780c0.2,2.4,1.2,4.6,3,6.4c1.8,1.8,4.4,2.8,7.9,2.8c2.7,0,4.7-0.6,6-1.8c1.4-1.2,2-2.7,2-4.4   c0-1.5-0.5-2.7-1.5-3.8c-1-1-2.6-1.8-4.8-2.2l-8-1.8c-4.8-1-8.4-3-10.8-5.8c-2.4-2.8-3.7-6.1-3.7-9.9c0-2.4,0.5-4.6,1.5-6.7   c1-2.1,2.4-3.9,4.2-5.5c1.8-1.6,3.8-2.8,6.2-3.8c2.4-0.9,5-1.4,7.8-1.4c3.8,0,6.9,0.5,9.4,1.6c2.5,1.1,4.6,2.4,6.2,3.9   c1.6,1.5,2.8,3.2,3.6,4.9c0.8,1.7,1.3,3.3,1.5,4.6l-10.8,3.1c-0.2-0.7-0.4-1.6-0.8-2.5c-0.4-1-0.9-1.8-1.7-2.7   c-0.8-0.8-1.8-1.5-3-2c-1.2-0.6-2.7-0.8-4.5-0.8c-2.3,0-4.1,0.6-5.6,1.8c-1.4,1.2-2.2,2.7-2.2,4.4c0,1.5,0.5,2.7,1.4,3.6   c1,1,2.3,1.6,4,2l8.2,1.7c5.1,1.1,8.9,3.1,11.5,6c2.6,2.9,3.9,6.4,3.9,10.3c0,2.1-0.4,4.1-1.3,6.1c-0.8,2-2.1,3.9-3.8,5.5   c-1.7,1.7-3.8,3-6.4,4c-2.6,1-5.6,1.5-8.9,1.5c-3.9,0-7.2-0.6-9.9-1.7c-2.7-1.1-5-2.5-6.7-4.1c-1.8-1.7-3.1-3.4-4-5.3   c-0.9-1.9-1.4-3.6-1.5-5.1L1184.6,780z"/>
	<path class="st0" d="M1240.5,743.9h11.2v11.4h-11.2v25c0,2.4,0.6,4.1,1.7,5.1c1.1,1.1,2.8,1.6,5.2,1.6c0.9,0,1.8-0.1,2.7-0.2   c0.9-0.1,1.5-0.2,1.8-0.3v10.6c-0.4,0.1-1.2,0.4-2.4,0.7c-1.3,0.3-3.1,0.5-5.4,0.5c-5,0-8.9-1.4-11.8-4.2   c-2.9-2.8-4.3-6.7-4.3-11.8v-27.1h-9.9v-11.4h2.8c2.9,0,5-0.8,6.3-2.4c1.3-1.6,2-3.6,2-6v-8.1h11.6V743.9z"/>
	<path class="st0" d="M1260.2,797.7v-53.8h12.3v6.8c1.5-2.7,3.8-4.8,6.9-6.2c3-1.4,6-2.2,9.1-2.2c3.5,0,6.7,0.8,9.6,2.4   c2.9,1.6,5,4,6.5,7.1c2.1-3.5,4.7-6,7.7-7.4c3-1.4,6.2-2.1,9.8-2.1c2.4,0,4.8,0.4,7.1,1.2c2.3,0.8,4.3,2,6.1,3.7   c1.8,1.7,3.2,3.8,4.3,6.4c1.1,2.6,1.6,5.6,1.6,9.2v34.9h-12.4v-32.8c0-3.2-0.8-5.8-2.5-7.9c-1.7-2.1-4.3-3.1-7.9-3.1   c-3.4,0-6.1,1.2-8.1,3.5c-2,2.3-3,5.1-3,8.5v31.9h-12.6v-32.8c0-3.1-0.8-5.7-2.4-7.8c-1.6-2.1-4.3-3.2-8-3.2   c-3.5,0-6.2,1.1-8.2,3.4c-2,2.2-3,5.1-3,8.6v31.9H1260.2z"/>
	<path class="st0" d="M1399.8,782.4c-0.7,2.4-1.8,4.6-3.2,6.6c-1.4,2.1-3.1,3.9-5.2,5.4c-2.1,1.5-4.4,2.8-7.1,3.6   c-2.7,0.9-5.6,1.3-8.8,1.3c-3.7,0-7.2-0.6-10.5-1.9c-3.3-1.3-6.2-3.2-8.7-5.6c-2.5-2.5-4.5-5.5-6-9.1c-1.5-3.6-2.3-7.6-2.3-12.2   c0-4.3,0.7-8.1,2.2-11.6c1.4-3.5,3.4-6.4,5.8-8.9c2.4-2.5,5.2-4.4,8.4-5.7c3.2-1.4,6.4-2,9.8-2c4.1,0,7.8,0.7,11.1,2   c3.3,1.3,6,3.2,8.3,5.6c2.2,2.4,4,5.4,5.1,8.8c1.2,3.4,1.8,7.3,1.8,11.5c0,1,0,1.9-0.1,2.7c-0.1,0.8-0.2,1.2-0.2,1.4h-39.3   c0.1,2.1,0.5,3.9,1.3,5.6c0.8,1.7,1.9,3.2,3.2,4.4c1.3,1.3,2.9,2.2,4.6,2.9c1.7,0.7,3.6,1,5.6,1c3.9,0,6.9-0.9,9-2.7   c2.1-1.8,3.6-4,4.5-6.7L1399.8,782.4z M1387.6,764.9c-0.1-1.5-0.4-3-0.9-4.5c-0.6-1.4-1.4-2.7-2.5-3.8c-1.1-1.1-2.5-2-4.1-2.7   c-1.6-0.7-3.5-1-5.7-1c-2,0-3.8,0.4-5.4,1.1c-1.6,0.7-2.9,1.6-4,2.8c-1.1,1.1-2,2.4-2.7,3.9c-0.7,1.4-1,2.9-1.1,4.3H1387.6z"/>
	<path class="st0" d="M1421.1,797.7h-12.8v-53.8h12.5v7.2c1.8-3.1,4.1-5.3,7-6.7c2.9-1.4,5.9-2,8.9-2c3.3,0,6.2,0.6,8.6,1.7   c2.4,1.1,4.4,2.6,6,4.6c1.6,2,2.8,4.2,3.6,6.8c0.8,2.6,1.2,5.3,1.2,8.3v34h-12.8v-31.8c0-3.3-0.8-6.1-2.5-8.5   c-1.7-2.3-4.5-3.5-8.6-3.5c-3.7,0-6.5,1.2-8.3,3.7c-1.9,2.5-2.8,5.5-2.8,9V797.7z"/>
	<path class="st0" d="M1483.6,743.9h11.2v11.4h-11.2v25c0,2.4,0.6,4.1,1.7,5.1c1.1,1.1,2.8,1.6,5.2,1.6c0.9,0,1.8-0.1,2.7-0.2   c0.9-0.1,1.5-0.2,1.8-0.3v10.6c-0.4,0.1-1.2,0.4-2.4,0.7c-1.3,0.3-3.1,0.5-5.4,0.5c-5,0-8.9-1.4-11.8-4.2   c-2.9-2.8-4.3-6.7-4.3-11.8v-27.1h-9.9v-11.4h2.8c2.9,0,5-0.8,6.3-2.4c1.3-1.6,2-3.6,2-6v-8.1h11.6V743.9z"/>
	<path class="st0" d="M1509.6,780c0.2,2.4,1.2,4.6,3,6.4c1.8,1.8,4.4,2.8,7.9,2.8c2.7,0,4.7-0.6,6-1.8c1.4-1.2,2-2.7,2-4.4   c0-1.5-0.5-2.7-1.5-3.8c-1-1-2.6-1.8-4.8-2.2l-8-1.8c-4.8-1-8.4-3-10.8-5.8c-2.4-2.8-3.7-6.1-3.7-9.9c0-2.4,0.5-4.6,1.5-6.7   c1-2.1,2.4-3.9,4.2-5.5c1.8-1.6,3.8-2.8,6.2-3.8c2.4-0.9,5-1.4,7.8-1.4c3.8,0,6.9,0.5,9.4,1.6c2.5,1.1,4.6,2.4,6.2,3.9   c1.6,1.5,2.8,3.2,3.6,4.9c0.8,1.7,1.3,3.3,1.5,4.6l-10.8,3.1c-0.2-0.7-0.4-1.6-0.8-2.5c-0.4-1-0.9-1.8-1.7-2.7   c-0.8-0.8-1.8-1.5-3-2c-1.2-0.6-2.7-0.8-4.5-0.8c-2.3,0-4.1,0.6-5.6,1.8c-1.4,1.2-2.2,2.7-2.2,4.4c0,1.5,0.5,2.7,1.4,3.6   c1,1,2.3,1.6,4,2l8.2,1.7c5.1,1.1,8.9,3.1,11.5,6c2.6,2.9,3.9,6.4,3.9,10.3c0,2.1-0.4,4.1-1.3,6.1c-0.8,2-2.1,3.9-3.8,5.5   c-1.7,1.7-3.8,3-6.4,4c-2.6,1-5.6,1.5-8.9,1.5c-3.9,0-7.2-0.6-9.9-1.7c-2.7-1.1-5-2.5-6.7-4.1c-1.8-1.7-3.1-3.4-4-5.3   c-0.9-1.9-1.4-3.6-1.5-5.1L1509.6,780z"/>
	<path class="st0" d="M803.5,731.5l30.1-65.7l-96.3-198.5h60.6l64.8,142.5l60.6-142.5h56.9L836.8,783.8   C809.9,783.8,792.4,756.1,803.5,731.5"/>
	<path class="st0" d="M1089.9,460.4c17.1,0,32.4,3.2,46.7,9.3c14.3,6,26.4,14.3,37,25c10.6,10.6,18.5,23.1,24.5,37.5   c6,14.3,8.8,30.5,8.8,47.7c0,17.1-2.8,33.3-8.8,47.7c-6,14.8-13.9,27.3-24.5,37.9c-10.6,10.6-22.7,19-37,25   c-14.3,6-29.6,9.3-46.7,9.3c-16.7,0-31.9-3.2-46.3-9.3c-14.3-6-26.8-14.3-37-25c-10.2-10.6-18.5-23.1-24.1-37.9   c-6-14.8-8.8-30.5-8.8-47.7c0-17.1,2.8-33.3,8.8-47.7c6-14.3,13.9-26.8,24.1-37.5c10.2-10.6,22.7-19,37-25   C1058,463.1,1073.3,460.4,1089.9,460.4 M1089.9,651.5c8.3,0,16.2-1.4,23.6-4.6c7.4-3.2,14.3-7.9,20.4-13.9c6-6,10.6-13.4,13.9-22.7   c3.2-8.8,5.1-19.4,5.1-31c0-11.6-1.9-22.2-5.1-31c-3.2-8.8-7.9-16.2-13.9-22.2c-6-6-12.5-10.6-20.4-13.4   c-7.4-2.8-15.3-4.6-23.6-4.6c-8.3,0-16.2,1.4-23.6,4.6c-7.4,2.8-14.3,7.4-19.9,13.4c-5.6,6-10.2,13.4-13.9,22.2   c-3.7,8.8-5.6,19-5.6,31c0,11.6,1.9,22.2,5.6,31c3.7,8.8,8.3,16.7,13.9,22.7c5.6,6,12.5,10.6,19.9,13.9   C1073.7,649.6,1081.6,651.5,1089.9,651.5"/>
	<path class="st0" d="M1240.3,692.7V401.1c0-24.1,19.4-43.5,43.5-43.5h10.2v292.9c0,23.1-19,42.1-42.1,42.1H1240.3z"/>
	<path class="st0" d="M1443.9,460.4c17.1,0,32.4,3.2,46.7,9.3c14.3,6,26.4,14.3,37,25c10.6,10.6,18.5,23.1,24.5,37.5   c6,14.3,8.8,30.5,8.8,47.7c0,17.1-2.8,33.3-8.8,47.7c-6,14.8-13.9,27.3-24.5,37.9c-10.6,10.6-22.7,19-37,25   c-14.3,6-29.6,9.3-46.7,9.3c-16.7,0-31.9-3.2-46.3-9.3c-14.3-6-26.8-14.3-37-25c-10.2-10.6-18.5-23.1-24.1-37.9   c-6-14.8-8.8-30.5-8.8-47.7c0-17.1,2.8-33.3,8.8-47.7c6-14.3,13.9-26.8,24.1-37.5c10.2-10.6,22.7-19,37-25   C1412,463.1,1427.3,460.4,1443.9,460.4 M1443.9,651.5c8.3,0,16.2-1.4,23.6-4.6c7.4-3.2,14.3-7.9,20.4-13.9c6-6,10.6-13.4,13.9-22.7   c3.2-8.8,5.1-19.4,5.1-31c0-11.6-1.9-22.2-5.1-31c-3.2-8.8-7.9-16.2-13.9-22.2c-6-6-12.5-10.6-20.4-13.4   c-7.4-2.8-15.3-4.6-23.6-4.6c-8.3,0-16.2,1.4-23.6,4.6c-7.4,2.8-14.3,7.4-19.9,13.4c-5.6,6-10.2,13.4-13.9,22.2   c-3.7,8.8-5.6,19-5.6,31c0,11.6,1.9,22.2,5.6,31c3.7,8.8,8.3,16.7,13.9,22.7c5.6,6,12.5,10.6,19.9,13.9   C1427.7,649.6,1435.6,651.5,1443.9,651.5"/>
	<path class="st1" d="M536.2,580.6c-27.1-0.4-48.5-23.1-48.5-50.1v-100c0-7.4-4.2-14.2-10.8-17.6l-88.6-45.5   C364.3,355,354,325.6,366,301.3c12.2-24.7,42.3-34.6,66.7-22l137.5,70.6c9.9,5.1,16.2,15.3,16.2,26.5v154.9   C586.3,558.8,563.8,581.1,536.2,580.6"/>
	<path class="st2" d="M721.8,311.5c0,32.8-26.6,59.5-59.5,59.5s-59.5-26.6-59.5-59.5c0-32.8,26.6-59.5,59.5-59.5   S721.8,278.6,721.8,311.5"/>
</g>
</svg>
